<svg xmlns="http://www.w3.org/2000/svg" xmlns:xlink="http://www.w3.org/1999/xlink" width="32" height="32" class="icon" p-id="5074" t="1608804447929" version="1.1" viewBox="0 0 1024 1024"><defs><style type="text/css"/></defs><path fill="#707070" d="M287.744 576h128c17.92 0 31.744-14.336 31.744-31.744s-14.336-31.744-31.744-31.744h-128c-17.92 0-31.744 14.336-31.744 31.744s14.336 31.744 31.744 31.744m0 128h128c17.92 0 31.744-14.336 31.744-31.744 0-17.92-14.336-31.744-31.744-31.744h-128c-17.92 0-31.744 14.336-31.744 31.744 0 17.408 14.336 31.744 31.744 31.744m0-256h256c17.92 0 31.744-14.336 31.744-31.744s-14.336-31.744-31.744-31.744h-256c-17.92 0-31.744 14.336-31.744 31.744s14.336 31.744 31.744 31.744" p-id="5075"/><path fill="#707070" d="M832 768h-640V256h640v512z m0-576h-640C156.672 192 128 220.672 128 256v512c0 35.328 28.672 64 64 64h640c35.328 0 64-28.672 64-64V256c0-35.328-28.672-64-64-64z" p-id="5076"/></svg>